<mxfile host="app.diagrams.net" agent="Mozilla/5.0 (Macintosh; Intel Mac OS X 10_15_7) AppleWebKit/537.36 (KHTML, like Gecko) Chrome/139.0.0.0 Safari/537.36" version="28.2.1">
  <diagram name="Page-1" id="-H_mtQnk-PTXWXPvYvuk">
    <mxGraphModel dx="1018" dy="1516" grid="1" gridSize="10" guides="1" tooltips="1" connect="1" arrows="1" fold="1" page="1" pageScale="1" pageWidth="1169" pageHeight="827" math="0" shadow="0">
      <root>
        <mxCell id="0" />
        <mxCell id="1" parent="0" />
        <mxCell id="VBauSYP-DP2ovIDYL1jZ-20" style="edgeStyle=orthogonalEdgeStyle;rounded=0;orthogonalLoop=1;jettySize=auto;html=1;exitX=0.5;exitY=1;exitDx=0;exitDy=0;entryX=0.5;entryY=0;entryDx=0;entryDy=0;" parent="1" source="zA23MoTUsTF4_91t8viU-3" target="VBauSYP-DP2ovIDYL1jZ-1" edge="1">
          <mxGeometry relative="1" as="geometry" />
        </mxCell>
        <mxCell id="VBauSYP-DP2ovIDYL1jZ-31" style="edgeStyle=orthogonalEdgeStyle;rounded=0;orthogonalLoop=1;jettySize=auto;html=1;exitX=0.5;exitY=1;exitDx=0;exitDy=0;" parent="1" source="zA23MoTUsTF4_91t8viU-3" target="VBauSYP-DP2ovIDYL1jZ-30" edge="1">
          <mxGeometry relative="1" as="geometry" />
        </mxCell>
        <mxCell id="VBauSYP-DP2ovIDYL1jZ-32" style="edgeStyle=orthogonalEdgeStyle;rounded=0;orthogonalLoop=1;jettySize=auto;html=1;exitX=0.5;exitY=1;exitDx=0;exitDy=0;entryX=0.5;entryY=0;entryDx=0;entryDy=0;" parent="1" source="zA23MoTUsTF4_91t8viU-3" target="VBauSYP-DP2ovIDYL1jZ-29" edge="1">
          <mxGeometry relative="1" as="geometry" />
        </mxCell>
        <mxCell id="zA23MoTUsTF4_91t8viU-3" value="pymongo-api" style="rounded=1;whiteSpace=wrap;html=1;fillColor=#dae8fc;strokeColor=#6c8ebf;" parent="1" vertex="1">
          <mxGeometry x="240" y="160" width="120" height="60" as="geometry" />
        </mxCell>
        <mxCell id="VBauSYP-DP2ovIDYL1jZ-27" style="edgeStyle=orthogonalEdgeStyle;rounded=0;orthogonalLoop=1;jettySize=auto;html=1;exitX=0.25;exitY=1;exitDx=0;exitDy=0;entryX=0.25;entryY=0;entryDx=0;entryDy=0;" parent="1" source="VBauSYP-DP2ovIDYL1jZ-1" target="VBauSYP-DP2ovIDYL1jZ-3" edge="1">
          <mxGeometry relative="1" as="geometry" />
        </mxCell>
        <mxCell id="VBauSYP-DP2ovIDYL1jZ-1" value="Router (Mongos)" style="rounded=1;whiteSpace=wrap;html=1;fillColor=#d5e8d4;strokeColor=#82b366;" parent="1" vertex="1">
          <mxGeometry x="240" y="400" width="120" height="60" as="geometry" />
        </mxCell>
        <mxCell id="VBauSYP-DP2ovIDYL1jZ-24" style="edgeStyle=orthogonalEdgeStyle;rounded=0;orthogonalLoop=1;jettySize=auto;html=1;exitX=0.5;exitY=1;exitDx=0;exitDy=0;entryX=0.75;entryY=0;entryDx=0;entryDy=0;" parent="1" source="VBauSYP-DP2ovIDYL1jZ-2" target="VBauSYP-DP2ovIDYL1jZ-3" edge="1">
          <mxGeometry relative="1" as="geometry" />
        </mxCell>
        <mxCell id="VBauSYP-DP2ovIDYL1jZ-26" style="edgeStyle=orthogonalEdgeStyle;rounded=0;orthogonalLoop=1;jettySize=auto;html=1;exitX=0.75;exitY=1;exitDx=0;exitDy=0;entryX=0.75;entryY=0;entryDx=0;entryDy=0;" parent="1" source="VBauSYP-DP2ovIDYL1jZ-2" target="VBauSYP-DP2ovIDYL1jZ-15" edge="1">
          <mxGeometry relative="1" as="geometry" />
        </mxCell>
        <mxCell id="VBauSYP-DP2ovIDYL1jZ-2" value="Router (Mongos)" style="rounded=1;whiteSpace=wrap;html=1;fillColor=#d5e8d4;strokeColor=#82b366;" parent="1" vertex="1">
          <mxGeometry x="480" y="400" width="120" height="60" as="geometry" />
        </mxCell>
        <mxCell id="VBauSYP-DP2ovIDYL1jZ-3" value="" style="rounded=1;whiteSpace=wrap;html=1;fillColor=#d5e8d4;strokeColor=#82b366;" parent="1" vertex="1">
          <mxGeometry x="240" y="520" width="120" height="240" as="geometry" />
        </mxCell>
        <mxCell id="VBauSYP-DP2ovIDYL1jZ-4" value="Shard (replica set)" style="text;html=1;align=center;verticalAlign=middle;resizable=0;points=[];autosize=1;strokeColor=none;fillColor=none;" parent="1" vertex="1">
          <mxGeometry x="240" y="530" width="120" height="30" as="geometry" />
        </mxCell>
        <mxCell id="VBauSYP-DP2ovIDYL1jZ-7" value="Primary" style="rounded=1;whiteSpace=wrap;html=1;" parent="1" vertex="1">
          <mxGeometry x="240" y="560" width="120" height="60" as="geometry" />
        </mxCell>
        <mxCell id="VBauSYP-DP2ovIDYL1jZ-8" value="Secondary" style="rounded=1;whiteSpace=wrap;html=1;" parent="1" vertex="1">
          <mxGeometry x="240" y="620" width="120" height="60" as="geometry" />
        </mxCell>
        <mxCell id="VBauSYP-DP2ovIDYL1jZ-9" value="Secondary" style="rounded=1;whiteSpace=wrap;html=1;" parent="1" vertex="1">
          <mxGeometry x="240" y="680" width="120" height="60" as="geometry" />
        </mxCell>
        <mxCell id="VBauSYP-DP2ovIDYL1jZ-15" value="" style="rounded=1;whiteSpace=wrap;html=1;fillColor=#d5e8d4;strokeColor=#82b366;" parent="1" vertex="1">
          <mxGeometry x="480" y="520" width="120" height="240" as="geometry" />
        </mxCell>
        <mxCell id="VBauSYP-DP2ovIDYL1jZ-16" value="Shard (replica set)" style="text;html=1;align=center;verticalAlign=middle;resizable=0;points=[];autosize=1;strokeColor=none;fillColor=none;" parent="1" vertex="1">
          <mxGeometry x="480" y="530" width="120" height="30" as="geometry" />
        </mxCell>
        <mxCell id="VBauSYP-DP2ovIDYL1jZ-17" value="Primary" style="rounded=1;whiteSpace=wrap;html=1;" parent="1" vertex="1">
          <mxGeometry x="480" y="560" width="120" height="60" as="geometry" />
        </mxCell>
        <mxCell id="VBauSYP-DP2ovIDYL1jZ-18" value="Secondary" style="rounded=1;whiteSpace=wrap;html=1;" parent="1" vertex="1">
          <mxGeometry x="480" y="620" width="120" height="60" as="geometry" />
        </mxCell>
        <mxCell id="VBauSYP-DP2ovIDYL1jZ-19" value="Secondary" style="rounded=1;whiteSpace=wrap;html=1;" parent="1" vertex="1">
          <mxGeometry x="480" y="680" width="120" height="60" as="geometry" />
        </mxCell>
        <mxCell id="VBauSYP-DP2ovIDYL1jZ-28" style="edgeStyle=orthogonalEdgeStyle;rounded=0;orthogonalLoop=1;jettySize=auto;html=1;exitX=0.5;exitY=1;exitDx=0;exitDy=0;entryX=0.358;entryY=-0.004;entryDx=0;entryDy=0;entryPerimeter=0;" parent="1" source="VBauSYP-DP2ovIDYL1jZ-1" target="VBauSYP-DP2ovIDYL1jZ-15" edge="1">
          <mxGeometry relative="1" as="geometry">
            <Array as="points">
              <mxPoint x="300" y="480" />
              <mxPoint x="523" y="480" />
            </Array>
          </mxGeometry>
        </mxCell>
        <mxCell id="VBauSYP-DP2ovIDYL1jZ-29" value="Redis" style="rounded=1;whiteSpace=wrap;html=1;fillColor=#f8cecc;strokeColor=#b85450;" parent="1" vertex="1">
          <mxGeometry x="560" y="300" width="120" height="60" as="geometry" />
        </mxCell>
        <mxCell id="VBauSYP-DP2ovIDYL1jZ-30" value="Redis" style="rounded=1;whiteSpace=wrap;html=1;fillColor=#f8cecc;strokeColor=#b85450;" parent="1" vertex="1">
          <mxGeometry x="160" y="300" width="120" height="60" as="geometry" />
        </mxCell>
        <mxCell id="eyYzzFbM6VOsixxzjfl4-9" style="edgeStyle=orthogonalEdgeStyle;rounded=0;orthogonalLoop=1;jettySize=auto;html=1;exitX=0.5;exitY=1;exitDx=0;exitDy=0;entryX=0.5;entryY=0;entryDx=0;entryDy=0;" parent="1" source="eyYzzFbM6VOsixxzjfl4-1" target="zA23MoTUsTF4_91t8viU-3" edge="1">
          <mxGeometry relative="1" as="geometry" />
        </mxCell>
        <mxCell id="eyYzzFbM6VOsixxzjfl4-10" style="edgeStyle=orthogonalEdgeStyle;rounded=0;orthogonalLoop=1;jettySize=auto;html=1;exitX=0.5;exitY=1;exitDx=0;exitDy=0;" parent="1" source="eyYzzFbM6VOsixxzjfl4-1" target="eyYzzFbM6VOsixxzjfl4-3" edge="1">
          <mxGeometry relative="1" as="geometry" />
        </mxCell>
        <mxCell id="eyYzzFbM6VOsixxzjfl4-1" value="APISIX Gateway" style="rounded=1;whiteSpace=wrap;html=1;fillColor=#dae8fc;strokeColor=#6c8ebf;" parent="1" vertex="1">
          <mxGeometry x="240" y="60" width="120" height="60" as="geometry" />
        </mxCell>
        <mxCell id="eyYzzFbM6VOsixxzjfl4-2" value="Consul" style="rounded=1;whiteSpace=wrap;html=1;fillColor=#dae8fc;strokeColor=#6c8ebf;" parent="1" vertex="1">
          <mxGeometry x="480" y="60" width="120" height="60" as="geometry" />
        </mxCell>
        <mxCell id="eyYzzFbM6VOsixxzjfl4-4" style="edgeStyle=orthogonalEdgeStyle;rounded=0;orthogonalLoop=1;jettySize=auto;html=1;exitX=0.5;exitY=1;exitDx=0;exitDy=0;" parent="1" source="eyYzzFbM6VOsixxzjfl4-3" target="VBauSYP-DP2ovIDYL1jZ-2" edge="1">
          <mxGeometry relative="1" as="geometry" />
        </mxCell>
        <mxCell id="eyYzzFbM6VOsixxzjfl4-3" value="pymongo-api" style="rounded=1;whiteSpace=wrap;html=1;fillColor=#dae8fc;strokeColor=#6c8ebf;" parent="1" vertex="1">
          <mxGeometry x="480" y="160" width="120" height="60" as="geometry" />
        </mxCell>
        <mxCell id="eyYzzFbM6VOsixxzjfl4-8" style="edgeStyle=orthogonalEdgeStyle;rounded=0;orthogonalLoop=1;jettySize=auto;html=1;exitX=1;exitY=0.5;exitDx=0;exitDy=0;entryX=0;entryY=0.5;entryDx=0;entryDy=0;" parent="1" source="eyYzzFbM6VOsixxzjfl4-7" target="eyYzzFbM6VOsixxzjfl4-2" edge="1">
          <mxGeometry relative="1" as="geometry" />
        </mxCell>
        <mxCell id="eyYzzFbM6VOsixxzjfl4-7" value="Consul kv" style="rounded=1;whiteSpace=wrap;html=1;fillColor=#dae8fc;strokeColor=#6c8ebf;" parent="1" vertex="1">
          <mxGeometry x="350" y="75" width="120" height="30" as="geometry" />
        </mxCell>
        <mxCell id="BCyGnQ5Lzk-wLSfwDTBe-6" style="edgeStyle=orthogonalEdgeStyle;rounded=0;orthogonalLoop=1;jettySize=auto;html=1;exitX=0.31;exitY=0.8;exitDx=0;exitDy=0;exitPerimeter=0;entryX=0.5;entryY=0;entryDx=0;entryDy=0;" edge="1" parent="1" source="BCyGnQ5Lzk-wLSfwDTBe-1" target="eyYzzFbM6VOsixxzjfl4-1">
          <mxGeometry relative="1" as="geometry">
            <Array as="points">
              <mxPoint x="507" y="30" />
              <mxPoint x="300" y="30" />
            </Array>
          </mxGeometry>
        </mxCell>
        <mxCell id="BCyGnQ5Lzk-wLSfwDTBe-10" style="edgeStyle=orthogonalEdgeStyle;rounded=0;orthogonalLoop=1;jettySize=auto;html=1;exitX=0.55;exitY=0.95;exitDx=0;exitDy=0;exitPerimeter=0;" edge="1" parent="1" source="BCyGnQ5Lzk-wLSfwDTBe-1">
          <mxGeometry relative="1" as="geometry">
            <mxPoint x="630" as="targetPoint" />
            <Array as="points">
              <mxPoint x="536" />
              <mxPoint x="630" />
            </Array>
          </mxGeometry>
        </mxCell>
        <mxCell id="BCyGnQ5Lzk-wLSfwDTBe-1" value="CDN" style="ellipse;shape=cloud;whiteSpace=wrap;html=1;fillColor=#f5f5f5;strokeColor=#666666;fontColor=#333333;" vertex="1" parent="1">
          <mxGeometry x="470" y="-160" width="120" height="80" as="geometry" />
        </mxCell>
        <mxCell id="BCyGnQ5Lzk-wLSfwDTBe-13" style="edgeStyle=orthogonalEdgeStyle;rounded=0;orthogonalLoop=1;jettySize=auto;html=1;" edge="1" parent="1" source="BCyGnQ5Lzk-wLSfwDTBe-2" target="BCyGnQ5Lzk-wLSfwDTBe-12">
          <mxGeometry relative="1" as="geometry" />
        </mxCell>
        <mxCell id="BCyGnQ5Lzk-wLSfwDTBe-2" value="Actor" style="shape=umlActor;verticalLabelPosition=bottom;verticalAlign=top;html=1;outlineConnect=0;fillColor=#f5f5f5;fontColor=#333333;strokeColor=#666666;" vertex="1" parent="1">
          <mxGeometry x="270" y="-300" width="30" height="60" as="geometry" />
        </mxCell>
        <mxCell id="BCyGnQ5Lzk-wLSfwDTBe-5" style="edgeStyle=orthogonalEdgeStyle;rounded=0;orthogonalLoop=1;jettySize=auto;html=1;exitX=0.55;exitY=0.95;exitDx=0;exitDy=0;exitPerimeter=0;entryX=0.5;entryY=0;entryDx=0;entryDy=0;" edge="1" parent="1" source="BCyGnQ5Lzk-wLSfwDTBe-4" target="eyYzzFbM6VOsixxzjfl4-1">
          <mxGeometry relative="1" as="geometry" />
        </mxCell>
        <mxCell id="BCyGnQ5Lzk-wLSfwDTBe-4" value="CDN" style="ellipse;shape=cloud;whiteSpace=wrap;html=1;fillColor=#f5f5f5;strokeColor=#666666;fontColor=#333333;" vertex="1" parent="1">
          <mxGeometry x="234" y="-160" width="120" height="80" as="geometry" />
        </mxCell>
        <mxCell id="BCyGnQ5Lzk-wLSfwDTBe-8" value="S3" style="shape=cylinder3;whiteSpace=wrap;html=1;boundedLbl=1;backgroundOutline=1;size=15;fillColor=#f5f5f5;fontColor=#333333;strokeColor=#666666;" vertex="1" parent="1">
          <mxGeometry x="630" y="-60" width="60" height="80" as="geometry" />
        </mxCell>
        <mxCell id="BCyGnQ5Lzk-wLSfwDTBe-9" style="edgeStyle=orthogonalEdgeStyle;rounded=0;orthogonalLoop=1;jettySize=auto;html=1;exitX=0.8;exitY=0.8;exitDx=0;exitDy=0;exitPerimeter=0;entryX=0;entryY=0;entryDx=0;entryDy=52.5;entryPerimeter=0;" edge="1" parent="1" source="BCyGnQ5Lzk-wLSfwDTBe-4" target="BCyGnQ5Lzk-wLSfwDTBe-8">
          <mxGeometry relative="1" as="geometry">
            <Array as="points">
              <mxPoint x="330" />
              <mxPoint x="630" />
            </Array>
          </mxGeometry>
        </mxCell>
        <mxCell id="BCyGnQ5Lzk-wLSfwDTBe-14" style="edgeStyle=orthogonalEdgeStyle;rounded=0;orthogonalLoop=1;jettySize=auto;html=1;" edge="1" parent="1" source="BCyGnQ5Lzk-wLSfwDTBe-11">
          <mxGeometry relative="1" as="geometry">
            <mxPoint x="410" y="-210" as="targetPoint" />
          </mxGeometry>
        </mxCell>
        <mxCell id="BCyGnQ5Lzk-wLSfwDTBe-11" value="Actor" style="shape=umlActor;verticalLabelPosition=bottom;verticalAlign=top;html=1;outlineConnect=0;fillColor=#f5f5f5;fontColor=#333333;strokeColor=#666666;" vertex="1" parent="1">
          <mxGeometry x="530" y="-300" width="30" height="60" as="geometry" />
        </mxCell>
        <mxCell id="BCyGnQ5Lzk-wLSfwDTBe-12" value="Site" style="ellipse;whiteSpace=wrap;html=1;aspect=fixed;" vertex="1" parent="1">
          <mxGeometry x="370" y="-220" width="80" height="80" as="geometry" />
        </mxCell>
        <mxCell id="BCyGnQ5Lzk-wLSfwDTBe-16" style="edgeStyle=orthogonalEdgeStyle;rounded=0;orthogonalLoop=1;jettySize=auto;html=1;exitX=0;exitY=0.5;exitDx=0;exitDy=0;entryX=0.4;entryY=0.1;entryDx=0;entryDy=0;entryPerimeter=0;" edge="1" parent="1" source="BCyGnQ5Lzk-wLSfwDTBe-12" target="BCyGnQ5Lzk-wLSfwDTBe-4">
          <mxGeometry relative="1" as="geometry" />
        </mxCell>
        <mxCell id="BCyGnQ5Lzk-wLSfwDTBe-17" style="edgeStyle=orthogonalEdgeStyle;rounded=0;orthogonalLoop=1;jettySize=auto;html=1;exitX=1;exitY=0.5;exitDx=0;exitDy=0;entryX=0.4;entryY=0.1;entryDx=0;entryDy=0;entryPerimeter=0;" edge="1" parent="1" source="BCyGnQ5Lzk-wLSfwDTBe-12" target="BCyGnQ5Lzk-wLSfwDTBe-1">
          <mxGeometry relative="1" as="geometry" />
        </mxCell>
      </root>
    </mxGraphModel>
  </diagram>
</mxfile>
